<svg width="14" height="17" viewBox="0 0 14 17" fill="none" xmlns="http://www.w3.org/2000/svg">
<path d="M5.20898 1.83331H2.54232C1.80594 1.83331 1.20898 2.43027 1.20898 3.16665V5.83331C1.20898 6.56969 1.80594 7.16665 2.54232 7.16665H5.20898C5.94536 7.16665 6.54232 6.56969 6.54232 5.83331V3.16665C6.54232 2.43027 5.94536 1.83331 5.20898 1.83331Z" stroke="#E6704B" stroke-width="2" stroke-linecap="round" stroke-linejoin="round"/>
<path d="M5.20898 9.83331H2.54232C1.80594 9.83331 1.20898 10.4303 1.20898 11.1666V13.8333C1.20898 14.5697 1.80594 15.1666 2.54232 15.1666H5.20898C5.94536 15.1666 6.54232 14.5697 6.54232 13.8333V11.1666C6.54232 10.4303 5.94536 9.83331 5.20898 9.83331Z" stroke="#E6704B" stroke-width="2" stroke-linecap="round" stroke-linejoin="round"/>
<path d="M12.543 11.1665H8.54297" stroke="#E6704B" stroke-width="2" stroke-linecap="round" stroke-linejoin="round"/>
<path d="M11.2096 13.8333H8.54297" stroke="#E6704B" stroke-width="2" stroke-linecap="round" stroke-linejoin="round"/>
<path d="M11.2096 5.83331H8.54297" stroke="#E6704B" stroke-width="2" stroke-linecap="round" stroke-linejoin="round"/>
<path d="M12.543 3.16647H8.54297" stroke="#E6704B" stroke-width="2" stroke-linecap="round" stroke-linejoin="round"/>
</svg>
